<svg viewBox="-7.2 -7.2 86.40 86.40" xmlns="http://www.w3.org/2000/svg" fill="#000000"
    transform="matrix(1, 0, 0, -1, 0, 0)rotate(45)">
    <g id="SVGRepo_bgCarrier" stroke-width="0"></g>
    <g id="SVGRepo_tracerCarrier" stroke-linecap="round" stroke-linejoin="round"></g>
    <g id="SVGRepo_iconCarrier">
        <g fill="none" fill-rule="evenodd">
            <path
                d="M36,72 L36,72 C55.882251,72 72,55.882251 72,36 L72,36 C72,16.117749 55.882251,-3.65231026e-15 36,0 L36,0 C16.117749,3.65231026e-15 -2.4348735e-15,16.117749 0,36 L0,36 C2.4348735e-15,55.882251 16.117749,72 36,72 Z"
                fill="#0086CD"></path>
            <path
                d="M52.9342618,33.3066733 C52.9726917,34.1325335 53.0326543,34.9350287 53.0440188,35.7382802 C53.1750842,44.9751043 47.0665235,52.9464465 38.0527664,55.2197924 C31.8983739,56.7720042 26.0112711,56.0067112 20.6550842,52.4395278 C15.8898506,49.2658416 13.0672711,44.746144 12.2243552,39.0284125 C10.6859627,28.5927981 17.201402,18.9960495 27.3990842,16.6080722 C30.9440562,15.7779021 34.4820001,15.7922688 38.0141122,16.6850476 C38.1334393,16.7152178 38.2511964,16.7516639 38.387645,16.7902272 L38.387645,28.3978643 C37.6640562,28.1692064 36.9571403,27.8788473 36.2223365,27.724972 C32.5314954,26.9522688 29.2618132,27.9024389 26.4141122,30.3413803 C24.7228225,31.7899248 23.5010655,33.5844805 22.9871216,35.7958983 C22.2434954,38.9957471 23.5622992,41.9017584 26.4758693,43.3708699 C29.5867478,44.9395656 32.7611777,44.874386 35.8797571,43.4101894 C38.8233085,42.02811 40.9365048,39.8077698 41.923645,36.6346885 C42.17643,35.8221365 42.2571029,34.9264843 42.262187,34.0680344 C42.2923178,28.9521932 42.2770655,23.8361251 42.2770655,18.7201327 L42.2770655,18.2307565 C42.892916,18.5822121 43.4559814,18.8722688 43.9875702,19.2124578 C46.3140001,20.7010023 48.6764674,22.121645 51.2108225,23.2262197 C52.9875702,24.0005864 54.8091777,24.6308321 56.7371777,24.8832329 C57.3281309,24.960662 57.9279814,24.9825146 58.5246169,24.9984692 C59.3543739,25.0206242 59.8366169,25.4946507 59.8608412,26.3412291 C59.8828225,27.111059 59.6313085,27.8056526 59.2672711,28.4578265 C57.9465982,30.8239512 55.9258879,32.3063709 53.411645,33.1549153 C53.2479066,33.2101894 53.0822992,33.2597924 52.9342618,33.3066733"
                fill="#FFF"></path>
        </g>
    </g>
</svg>